<svg width="18" height="16" viewBox="0 0 18 16" fill="none" xmlns="http://www.w3.org/2000/svg">
<path d="M15.3333 14H1.91667V1.75H15.3333M15.3333 0H1.91667C1.40833 0 0.920823 0.184374 0.561379 0.512563C0.201934 0.840752 0 1.28587 0 1.75V14C0 14.4641 0.201934 14.9092 0.561379 15.2374C0.920823 15.5656 1.40833 15.75 1.91667 15.75H15.3333C15.8417 15.75 16.3292 15.5656 16.6886 15.2374C17.0481 14.9092 17.25 14.4641 17.25 14V1.75C17.25 1.28587 17.0481 0.840752 16.6886 0.512563C16.3292 0.184374 15.8417 0 15.3333 0ZM12.9375 11.5938C12.9375 10.2812 10.0625 9.625 8.625 9.625C7.1875 9.625 4.3125 10.2812 4.3125 11.5938V12.25H12.9375M8.625 8.09375C9.19687 8.09375 9.74532 7.88633 10.1497 7.51712C10.5541 7.1479 10.7812 6.64714 10.7812 6.125C10.7812 5.60286 10.5541 5.1021 10.1497 4.73288C9.74532 4.36367 9.19687 4.15625 8.625 4.15625C8.05313 4.15625 7.50468 4.36367 7.1003 4.73288C6.69593 5.1021 6.46875 5.60286 6.46875 6.125C6.46875 6.64714 6.69593 7.1479 7.1003 7.51712C7.50468 7.88633 8.05313 8.09375 8.625 8.09375Z" fill="#5E5873"/>
</svg>
