<svg width="17" height="18" viewBox="0 0 17 18" fill="none" xmlns="http://www.w3.org/2000/svg">
<path d="M6.76905 7.21779C6.05505 7.21779 5.3571 7.006 4.7635 6.60921C4.16991 6.21242 3.70735 5.64848 3.43436 4.98873C3.16137 4.32897 3.09021 3.60307 3.22989 2.90287C3.36958 2.20267 3.71382 1.55963 4.21907 1.05513C4.72432 0.550635 5.36786 0.207342 6.06827 0.0686958C6.76868 -0.0699507 7.49447 0.00227956 8.15382 0.276247C8.81316 0.550215 9.37643 1.01361 9.77233 1.60779C10.1682 2.20197 10.379 2.90024 10.3779 3.61424C10.3751 4.57001 9.99382 5.48576 9.31748 6.1611C8.64114 6.83644 7.72483 7.21638 6.76905 7.21779ZM6.76905 1.07306C6.26645 1.07306 5.77514 1.2221 5.35725 1.50133C4.93935 1.78055 4.61365 2.17743 4.42131 2.64177C4.22897 3.10611 4.17865 3.61705 4.2767 4.10999C4.37475 4.60293 4.61678 5.05573 4.97217 5.41112C5.32756 5.76651 5.78035 6.00853 6.27329 6.10658C6.76623 6.20463 7.27718 6.15431 7.74151 5.96197C8.20585 5.76964 8.60273 5.44393 8.88196 5.02604C9.16119 4.60814 9.31022 4.11683 9.31022 3.61424C9.31022 2.94027 9.04249 2.29392 8.56593 1.81735C8.08937 1.34079 7.44301 1.07306 6.76905 1.07306Z" fill="#5E5873"/>
<path d="M7.69827 16.225C7.58159 16.1083 7.49158 15.9677 7.43444 15.8129C7.37731 15.658 7.35439 15.4927 7.36727 15.3281H1.06772V12.2424C1.82468 11.4347 2.74282 10.795 3.7627 10.3646C4.78257 9.93418 5.88146 9.72275 6.98823 9.74396H7.37261C7.34811 9.56497 7.36522 9.38274 7.42263 9.21144C7.48004 9.04014 7.57619 8.8844 7.7036 8.75632L7.76767 8.69759C7.51675 8.69759 7.23381 8.66556 6.98823 8.66556C5.68583 8.63464 4.39283 8.89352 3.20272 9.42348C2.01261 9.95345 0.955144 10.7412 0.106772 11.7299C0.0374652 11.8223 0 11.9347 0 12.0502V15.3281C0 15.6113 0.112492 15.8829 0.312728 16.0831C0.512964 16.2834 0.784543 16.3959 1.06772 16.3959H7.84775L7.69827 16.225Z" fill="#5E5873"/>
<path d="M16.9124 11.761L15.8447 11.4353C15.7684 11.1742 15.6646 10.9218 15.5351 10.6826L16.0689 9.68959C16.0863 9.64987 16.0905 9.60563 16.0809 9.56336C16.0713 9.52109 16.0484 9.483 16.0155 9.45469L15.2414 8.68059C15.2122 8.6489 15.1731 8.62798 15.1305 8.62121C15.0879 8.61443 15.0442 8.62218 15.0065 8.64322L14.0242 9.17708C13.7824 9.04111 13.5264 8.93191 13.2608 8.85143L12.9352 7.78371C12.9213 7.74441 12.8951 7.71066 12.8605 7.68755C12.8258 7.66444 12.7846 7.65322 12.743 7.65558H11.6486C11.6065 7.6551 11.5655 7.66841 11.5317 7.69348C11.498 7.71855 11.4734 7.754 11.4617 7.79439L11.1361 8.86211C10.8687 8.9399 10.6108 9.04734 10.3673 9.18242L9.39567 8.64856C9.35882 8.62793 9.31606 8.62039 9.27437 8.62718C9.23268 8.63396 9.19452 8.65467 9.16611 8.68593L8.376 9.45469C8.34671 9.48554 8.32785 9.52482 8.3221 9.56697C8.31635 9.60913 8.324 9.65202 8.34397 9.68959L8.87783 10.6612C8.73663 10.9019 8.62377 11.158 8.5415 11.4246L7.47378 11.745C7.43339 11.7566 7.39794 11.7812 7.37287 11.815C7.3478 11.8487 7.33449 11.8898 7.33497 11.9318V13.0262C7.33813 13.0648 7.35318 13.1014 7.37804 13.1311C7.4029 13.1607 7.43635 13.1819 7.47378 13.1917L8.5415 13.5174C8.6204 13.7792 8.72782 14.0317 8.86181 14.2701L8.32795 15.2898C8.30758 15.3263 8.29969 15.3685 8.30547 15.4099C8.31125 15.4514 8.33039 15.4898 8.35999 15.5193L9.13408 16.2934C9.16432 16.3236 9.2033 16.3435 9.24548 16.3502C9.28766 16.3569 9.33088 16.3501 9.36898 16.3308L10.3673 15.7969C10.6049 15.9247 10.8554 16.0267 11.1147 16.1013L11.435 17.169C11.4482 17.2085 11.4731 17.243 11.5066 17.2678C11.54 17.2927 11.5802 17.3066 11.6219 17.3078H12.7163C12.7581 17.3074 12.7987 17.2938 12.8323 17.2688C12.8659 17.2439 12.8907 17.2089 12.9031 17.169L13.2288 16.0746C13.4846 16 13.7316 15.898 13.9655 15.7703L14.9745 16.3041C15.0116 16.3238 15.0541 16.3308 15.0956 16.3241C15.137 16.3173 15.1752 16.2972 15.2041 16.2667L16.0155 15.5407C16.0374 15.5094 16.0491 15.4721 16.0491 15.4339C16.0491 15.3957 16.0374 15.3585 16.0155 15.3272L15.4817 14.3235C15.6113 14.088 15.7151 13.8392 15.7913 13.5814L16.859 13.2558C16.8994 13.2441 16.9349 13.2195 16.9599 13.1858C16.985 13.152 16.9983 13.111 16.9978 13.0689V11.9478C17.0027 11.9118 16.9973 11.8751 16.9822 11.842C16.9671 11.8089 16.9429 11.7808 16.9124 11.761ZM12.1984 14.2594C11.8453 14.2605 11.4998 14.1567 11.2058 13.9612C10.9118 13.7656 10.6824 13.4872 10.5468 13.1612C10.4111 12.8351 10.3754 12.4762 10.444 12.1298C10.5126 11.7834 10.6826 11.4652 10.9323 11.2155C11.182 10.9658 11.5002 10.7959 11.8466 10.7273C12.1929 10.6586 12.5519 10.6944 12.8779 10.83C13.204 10.9656 13.4824 11.195 13.6779 11.489C13.8734 11.7831 13.9773 12.1286 13.9762 12.4817C13.9748 12.9527 13.787 13.4041 13.4539 13.7372C13.1209 14.0703 12.6695 14.258 12.1984 14.2594Z" fill="#5E5873"/>
</svg>
