<svg width="10" height="7" viewBox="0 0 10 7" fill="none" xmlns="http://www.w3.org/2000/svg">
<path d="M4.09935 5.80126L0.202597 1.34714C-0.257278 0.822262 0.116473 1.19209e-05 0.81441 1.19209e-05L8.60791 1.19209e-05C8.76411 -0.000122001 8.91703 0.0447705 9.04838 0.129314C9.17972 0.213857 9.2839 0.334467 9.34846 0.4767C9.41302 0.618933 9.43521 0.77676 9.41238 0.931281C9.38955 1.0858 9.32266 1.23047 9.21972 1.34795L5.32297 5.80045C5.24671 5.88772 5.15266 5.95766 5.04714 6.00559C4.94161 6.05351 4.82706 6.07831 4.71116 6.07831C4.59526 6.07831 4.48071 6.05351 4.37518 6.00559C4.26966 5.95766 4.17561 5.88772 4.09935 5.80045V5.80126Z" fill="#383838"/>
</svg>
