<svg width="13" height="13" viewBox="0 0 13 13" fill="none" xmlns="http://www.w3.org/2000/svg">
<path d="M5.72435 8.66047L1.8276 4.20635C1.36772 3.68147 1.74147 2.85922 2.43941 2.85922L10.2329 2.85922C10.3891 2.85909 10.542 2.90398 10.6734 2.98852C10.8047 3.07307 10.9089 3.19368 10.9735 3.33591C11.038 3.47814 11.0602 3.63597 11.0374 3.79049C11.0145 3.94501 10.9477 4.08968 10.8447 4.20716L6.94797 8.65966C6.87171 8.74693 6.77766 8.81688 6.67214 8.8648C6.56661 8.91272 6.45206 8.93752 6.33616 8.93752C6.22026 8.93752 6.10571 8.91272 6.00018 8.8648C5.89466 8.81688 5.80061 8.74693 5.72435 8.65966V8.66047Z" fill="#F48322"/>
</svg>
