<svg width="15" height="16" viewBox="0 0 15 16" fill="none" xmlns="http://www.w3.org/2000/svg">
<path d="M0.625052 6.43545C0.459278 6.43545 0.300294 6.36764 0.183074 6.24693C0.0658536 6.12621 0 5.96249 0 5.79178V0.643674C0 0.472961 0.0658536 0.30924 0.183074 0.188528C0.300294 0.0678156 0.459278 0 0.625052 0H5.62547C5.79124 0 5.95023 0.0678156 6.06745 0.188528C6.18467 0.30924 6.25052 0.472961 6.25052 0.643674V5.79178C6.25052 5.96249 6.18467 6.12621 6.06745 6.24693C5.95023 6.36764 5.79124 6.43545 5.62547 6.43545H0.625052ZM9.37578 6.43545C9.21001 6.43545 9.05102 6.36764 8.9338 6.24693C8.81658 6.12621 8.75073 5.96249 8.75073 5.79178V0.643674C8.75073 0.472961 8.81658 0.30924 8.9338 0.188528C9.05102 0.0678156 9.21001 0 9.37578 0H14.3749C14.5407 0 14.6997 0.0678156 14.8169 0.188528C14.9341 0.30924 15 0.472961 15 0.643674V5.79178C15 5.96249 14.9341 6.12621 14.8169 6.24693C14.6997 6.36764 14.5407 6.43545 14.3749 6.43545H9.37578ZM0.625052 15.4469C0.459278 15.4469 0.300294 15.3791 0.183074 15.2584C0.0658536 15.1377 0 14.9739 0 14.8032V9.65382C0 9.48311 0.0658536 9.31939 0.183074 9.19868C0.300294 9.07796 0.459278 9.01015 0.625052 9.01015H5.62547C5.79124 9.01015 5.95023 9.07796 6.06745 9.19868C6.18467 9.31939 6.25052 9.48311 6.25052 9.65382V14.8032C6.25052 14.9739 6.18467 15.1377 6.06745 15.2584C5.95023 15.3791 5.79124 15.4469 5.62547 15.4469H0.625052ZM9.37578 15.4469C9.21001 15.4469 9.05102 15.3791 8.9338 15.2584C8.81658 15.1377 8.75073 14.9739 8.75073 14.8032V9.65382C8.75073 9.48311 8.81658 9.31939 8.9338 9.19868C9.05102 9.07796 9.21001 9.01015 9.37578 9.01015H14.3749C14.5407 9.01015 14.6997 9.07796 14.8169 9.19868C14.9341 9.31939 15 9.48311 15 9.65382V14.8032C15 14.9739 14.9341 15.1377 14.8169 15.2584C14.6997 15.3791 14.5407 15.4469 14.3749 15.4469H9.37578Z" fill="#5E5873"/>
</svg>
