<svg width="17" height="17" viewBox="0 0 17 17" fill="none" xmlns="http://www.w3.org/2000/svg">
<path d="M8.5 7.08332C9.27917 7.08332 9.91667 7.72082 9.91667 8.49999C9.91667 9.27915 9.27917 9.91665 8.5 9.91665C7.72083 9.91665 7.08333 9.27915 7.08333 8.49999C7.08333 7.72082 7.72083 7.08332 8.5 7.08332ZM14.5137 14.5137C17.8287 11.1987 17.8287 5.80832 14.5137 2.49332C14.2375 2.21707 13.7912 2.21707 13.515 2.49332C13.2387 2.76957 13.2387 3.21582 13.515 3.49207C16.2775 6.25457 16.2775 10.7454 13.515 13.5079C13.2387 13.7842 13.2387 14.2304 13.515 14.5067C13.6567 14.6483 13.8337 14.7121 14.0179 14.7121C14.2021 14.7121 14.3792 14.6412 14.5208 14.5067L14.5137 14.5137ZM12.0062 12.0062C12.9412 11.0712 13.4583 9.82457 13.4583 8.49999C13.4583 7.1754 12.9412 5.92874 12.0062 4.99374C11.73 4.71749 11.2837 4.71749 11.0075 4.99374C10.7312 5.26999 10.7312 5.71624 11.0075 5.99249C11.6733 6.65832 12.0417 7.55082 12.0417 8.49999C12.0417 9.44915 11.6733 10.3346 11.0075 11.0075C10.7312 11.2837 10.7312 11.73 11.0075 12.0062C11.1492 12.1479 11.3262 12.2117 11.5104 12.2117C11.6946 12.2117 11.8717 12.1408 12.0133 12.0062H12.0062ZM3.49208 14.5137C3.76833 14.2375 3.76833 13.7912 3.49208 13.515C0.729581 10.7525 0.729581 6.26165 3.49208 3.49915C3.76833 3.2229 3.76833 2.77665 3.49208 2.5004C3.21583 2.22415 2.76958 2.22415 2.49333 2.5004C-0.821669 5.80124 -0.821669 11.1987 2.48625 14.5137C2.62791 14.6554 2.805 14.7192 2.98916 14.7192C3.17333 14.7192 3.35041 14.6483 3.49208 14.5137ZM5.99958 12.0062C6.27583 11.73 6.27583 11.2837 5.99958 11.0075C4.61833 9.62624 4.61833 7.38082 5.99958 5.99957C6.27583 5.72332 6.27583 5.27707 5.99958 5.00082C5.72333 4.72457 5.27708 4.72457 5.00083 5.00082C3.06708 6.93457 3.06708 10.0796 5.00083 12.0133C5.1425 12.155 5.31958 12.2187 5.50375 12.2187C5.68791 12.2187 5.865 12.1479 6.00666 12.0133L5.99958 12.0062Z" fill="#5E5873"/>
</svg>
