<svg width="15" height="15" viewBox="0 0 15 15" fill="none" xmlns="http://www.w3.org/2000/svg">
<g clip-path="url(#clip0_1_321)">
<path d="M1.64062 0H13.3594C14.265 0 15 0.735 15 1.64062V13.3594C15 13.7945 14.8271 14.2118 14.5195 14.5195C14.2118 14.8271 13.7945 15 13.3594 15H1.64062C1.2055 15 0.788205 14.8271 0.480528 14.5195C0.172851 14.2118 0 13.7945 0 13.3594L0 1.64062C0 0.735 0.735 0 1.64062 0ZM1.40625 1.64062V13.3594C1.40625 13.4888 1.51125 13.5938 1.64062 13.5938H13.3594C13.4215 13.5938 13.4811 13.5691 13.5251 13.5251C13.5691 13.4811 13.5938 13.4215 13.5938 13.3594V1.64062C13.5938 1.57846 13.5691 1.51885 13.5251 1.4749C13.4811 1.43094 13.4215 1.40625 13.3594 1.40625H1.64062C1.57846 1.40625 1.51885 1.43094 1.4749 1.4749C1.43094 1.51885 1.40625 1.57846 1.40625 1.64062ZM11.0156 2.8125C11.2021 2.8125 11.3809 2.88658 11.5128 3.01844C11.6447 3.1503 11.7188 3.32914 11.7188 3.51562V10.5469C11.7188 10.7334 11.6447 10.9122 11.5128 11.0441C11.3809 11.1759 11.2021 11.25 11.0156 11.25C10.8291 11.25 10.6503 11.1759 10.5184 11.0441C10.3866 10.9122 10.3125 10.7334 10.3125 10.5469V3.51562C10.3125 3.32914 10.3866 3.1503 10.5184 3.01844C10.6503 2.88658 10.8291 2.8125 11.0156 2.8125ZM3.28125 3.51562C3.28125 3.32914 3.35533 3.1503 3.48719 3.01844C3.61905 2.88658 3.79789 2.8125 3.98438 2.8125C4.17086 2.8125 4.3497 2.88658 4.48156 3.01844C4.61342 3.1503 4.6875 3.32914 4.6875 3.51562V8.67188C4.6875 8.85836 4.61342 9.0372 4.48156 9.16906C4.3497 9.30092 4.17086 9.375 3.98438 9.375C3.79789 9.375 3.61905 9.30092 3.48719 9.16906C3.35533 9.0372 3.28125 8.85836 3.28125 8.67188V3.51562ZM7.5 2.8125C7.68648 2.8125 7.86532 2.88658 7.99718 3.01844C8.12905 3.1503 8.20312 3.32914 8.20312 3.51562V6.79688C8.20312 6.98336 8.12905 7.1622 7.99718 7.29406C7.86532 7.42592 7.68648 7.5 7.5 7.5C7.31352 7.5 7.13468 7.42592 7.00282 7.29406C6.87095 7.1622 6.79688 6.98336 6.79688 6.79688V3.51562C6.79688 3.32914 6.87095 3.1503 7.00282 3.01844C7.13468 2.88658 7.31352 2.8125 7.5 2.8125Z" fill="#5E5873"/>
</g>
<defs>
<clipPath id="clip0_1_321">
<rect width="15" height="15" fill="white"/>
</clipPath>
</defs>
</svg>
