<svg width="15" height="15" viewBox="0 0 15 15" fill="none" xmlns="http://www.w3.org/2000/svg">
<path d="M9 7.5H10.125V9.615L11.955 10.6725L11.3925 11.6475L9 10.2675V7.5ZM1.5 0H12C12.3978 0 12.7794 0.158035 13.0607 0.43934C13.342 0.720644 13.5 1.10218 13.5 1.5V6.075C14.43 7.02 15 8.3175 15 9.75C15 11.1424 14.4469 12.4777 13.4623 13.4623C12.4777 14.4469 11.1424 15 9.75 15C8.3175 15 7.02 14.43 6.075 13.5H1.5C1.10218 13.5 0.720644 13.342 0.43934 13.0607C0.158035 12.7794 0 12.3978 0 12V1.5C0 1.10218 0.158035 0.720644 0.43934 0.43934C0.720644 0.158035 1.10218 0 1.5 0ZM1.5 9.75V12H5.0025C4.68 11.3175 4.5 10.5525 4.5 9.75H1.5ZM1.5 4.5H6V2.25H1.5V4.5ZM12 4.5V2.25H7.5V4.5H12ZM1.5 8.25H4.7175C4.9725 7.3875 5.445 6.615 6.075 6H1.5V8.25ZM9.75 6.1125C8.78528 6.1125 7.86006 6.49574 7.1779 7.1779C6.49574 7.86006 6.1125 8.78528 6.1125 9.75C6.1125 11.76 7.74 13.3875 9.75 13.3875C10.2277 13.3875 10.7007 13.2934 11.142 13.1106C11.5833 12.9278 11.9843 12.6599 12.3221 12.3221C12.6599 11.9843 12.9278 11.5833 13.1106 11.142C13.2934 10.7007 13.3875 10.2277 13.3875 9.75C13.3875 7.74 11.76 6.1125 9.75 6.1125Z" fill="#5E5873"/>
</svg>
