<svg width="13" height="13" viewBox="0 0 13 13" fill="none" xmlns="http://www.w3.org/2000/svg">
<path d="M8.66699 7.58331C10.1834 7.58348 11.3748 8.77492 11.375 10.2913V11.3753C11.3749 11.7001 11.1579 11.9163 10.833 11.9163C10.5083 11.9162 10.2921 11.7 10.292 11.3753V10.2913C10.2918 9.37076 9.58756 8.66649 8.66699 8.66632H4.33301C3.41244 8.66649 2.70817 9.37076 2.70801 10.2913V11.3753C2.70786 11.7 2.4917 11.9162 2.16699 11.9163C1.8421 11.9163 1.62514 11.7001 1.625 11.3753V10.2913C1.62517 8.77492 2.8166 7.58348 4.33301 7.58331H8.66699ZM6.5 1.08331C8.01656 1.08331 9.20784 2.27481 9.20801 3.79132C9.20801 5.30799 8.01667 6.50031 6.5 6.50031C4.98333 6.50031 3.79199 5.30799 3.79199 3.79132C3.79216 2.27481 4.98344 1.08331 6.5 1.08331ZM6.5 2.16632C5.57928 2.16632 4.87517 2.87065 4.875 3.79132C4.875 4.71215 5.57917 5.41632 6.5 5.41632C7.42083 5.41632 8.125 4.71215 8.125 3.79132C8.12483 2.87065 7.42072 2.16632 6.5 2.16632Z" fill="#5E5873"/>
<mask id="mask0_1_276" style="mask-type:luminance" maskUnits="userSpaceOnUse" x="1" y="1" width="11" height="11">
<path d="M8.66699 7.58331C10.1834 7.58348 11.3748 8.77492 11.375 10.2913V11.3753C11.3749 11.7001 11.1579 11.9163 10.833 11.9163C10.5083 11.9162 10.2921 11.7 10.292 11.3753V10.2913C10.2918 9.37076 9.58756 8.66649 8.66699 8.66632H4.33301C3.41244 8.66649 2.70817 9.37076 2.70801 10.2913V11.3753C2.70786 11.7 2.4917 11.9162 2.16699 11.9163C1.8421 11.9163 1.62514 11.7001 1.625 11.3753V10.2913C1.62517 8.77492 2.8166 7.58348 4.33301 7.58331H8.66699ZM6.5 1.08331C8.01656 1.08331 9.20784 2.27481 9.20801 3.79132C9.20801 5.30799 8.01667 6.50031 6.5 6.50031C4.98333 6.50031 3.79199 5.30799 3.79199 3.79132C3.79216 2.27481 4.98344 1.08331 6.5 1.08331ZM6.5 2.16632C5.57928 2.16632 4.87517 2.87065 4.875 3.79132C4.875 4.71215 5.57917 5.41632 6.5 5.41632C7.42083 5.41632 8.125 4.71215 8.125 3.79132C8.12483 2.87065 7.42072 2.16632 6.5 2.16632Z" fill="white"/>
</mask>
<g mask="url(#mask0_1_276)">
<rect width="13" height="13" fill="#5E5873"/>
</g>
</svg>
